<svg id="visual" viewBox="0 0 1920 1080" width="1920" height="1080" xmlns="http://www.w3.org/2000/svg" xmlns:xlink="http://www.w3.org/1999/xlink" version="1.1"><g stroke-width="1" stroke-linejoin="bevel"><path d="M950 500L1288 500L979 290Z" fill="#455c72" stroke="#455c72"></path><path d="M1288 500L1306 247L979 290Z" fill="#2f4157" stroke="#2f4157"></path><path d="M950 500L918 763L1288 500Z" fill="#455c72" stroke="#455c72"></path><path d="M918 763L1316 798L1288 500Z" fill="#4d677d" stroke="#4d677d"></path><path d="M1288 500L1614 274L1306 247Z" fill="#40566c" stroke="#40566c"></path><path d="M1306 247L948 0L979 290Z" fill="#455c72" stroke="#455c72"></path><path d="M606 260L633 518L950 500Z" fill="#526d82" stroke="#526d82"></path><path d="M950 500L633 518L918 763Z" fill="#2b3c52" stroke="#2b3c52"></path><path d="M1306 247L1303 0L948 0Z" fill="#4d677d" stroke="#4d677d"></path><path d="M1574 0L1303 0L1306 247Z" fill="#2b3c52" stroke="#2b3c52"></path><path d="M1316 798L1567 577L1288 500Z" fill="#33465d" stroke="#33465d"></path><path d="M606 260L950 500L979 290Z" fill="#496277" stroke="#496277"></path><path d="M1567 577L1614 274L1288 500Z" fill="#4d677d" stroke="#4d677d"></path><path d="M948 0L606 260L979 290Z" fill="#384c62" stroke="#384c62"></path><path d="M633 518L668 777L918 763Z" fill="#2b3c52" stroke="#2b3c52"></path><path d="M918 763L996 1080L1316 798Z" fill="#4d677d" stroke="#4d677d"></path><path d="M1614 274L1574 0L1306 247Z" fill="#3c5167" stroke="#3c5167"></path><path d="M948 0L650 0L606 260Z" fill="#33465d" stroke="#33465d"></path><path d="M1316 798L1607 819L1567 577Z" fill="#27374d" stroke="#27374d"></path><path d="M1567 577L1920 515L1614 274Z" fill="#27374d" stroke="#27374d"></path><path d="M1575 1080L1607 819L1316 798Z" fill="#2f4157" stroke="#2f4157"></path><path d="M667 1080L996 1080L918 763Z" fill="#4d677d" stroke="#4d677d"></path><path d="M996 1080L1309 1080L1316 798Z" fill="#384c62" stroke="#384c62"></path><path d="M351 851L667 1080L668 777Z" fill="#496277" stroke="#496277"></path><path d="M668 777L667 1080L918 763Z" fill="#33465d" stroke="#33465d"></path><path d="M287 562L668 777L633 518Z" fill="#455c72" stroke="#455c72"></path><path d="M1309 1080L1575 1080L1316 798Z" fill="#496277" stroke="#496277"></path><path d="M1920 830L1920 515L1607 819Z" fill="#384c62" stroke="#384c62"></path><path d="M1607 819L1920 515L1567 577Z" fill="#2b3c52" stroke="#2b3c52"></path><path d="M1614 274L1920 0L1574 0Z" fill="#2f4157" stroke="#2f4157"></path><path d="M1920 515L1920 315L1614 274Z" fill="#3c5167" stroke="#3c5167"></path><path d="M313 0L313 232L606 260Z" fill="#40566c" stroke="#40566c"></path><path d="M606 260L313 232L633 518Z" fill="#33465d" stroke="#33465d"></path><path d="M313 232L287 562L633 518Z" fill="#384c62" stroke="#384c62"></path><path d="M287 562L351 851L668 777Z" fill="#455c72" stroke="#455c72"></path><path d="M1920 1080L1920 830L1607 819Z" fill="#3c5167" stroke="#3c5167"></path><path d="M1920 315L1920 0L1614 274Z" fill="#2b3c52" stroke="#2b3c52"></path><path d="M650 0L313 0L606 260Z" fill="#27374d" stroke="#27374d"></path><path d="M313 232L0 261L287 562Z" fill="#526d82" stroke="#526d82"></path><path d="M0 841L328 1080L351 851Z" fill="#2f4157" stroke="#2f4157"></path><path d="M351 851L328 1080L667 1080Z" fill="#2b3c52" stroke="#2b3c52"></path><path d="M1575 1080L1920 1080L1607 819Z" fill="#27374d" stroke="#27374d"></path><path d="M0 0L0 261L313 232Z" fill="#4d677d" stroke="#4d677d"></path><path d="M287 562L0 841L351 851Z" fill="#27374d" stroke="#27374d"></path><path d="M0 261L0 574L287 562Z" fill="#384c62" stroke="#384c62"></path><path d="M313 0L0 0L313 232Z" fill="#4d677d" stroke="#4d677d"></path><path d="M0 574L0 841L287 562Z" fill="#33465d" stroke="#33465d"></path><path d="M0 841L0 1080L328 1080Z" fill="#4d677d" stroke="#4d677d"></path></g></svg>