<?xml version="1.0" encoding="utf-8"?>
<svg width="64px" height="64px" viewBox="0 0 64 64" version="1.1" xmlns:xlink="http://www.w3.org/1999/xlink" xmlns="http://www.w3.org/2000/svg">
  <defs>
    <path d="M64 0L64 0L64 64L0 64L0 0L64 0Z" id="path_1" />
    <clipPath id="clip_1">
      <use xlink:href="#path_1" clip-rule="evenodd" fill-rule="evenodd" />
    </clipPath>
  </defs>
  <g id="Menu 2" clip-path="url(#clip_1)">
    <path d="M64 0L64 0L64 64L0 64L0 0L64 0Z" id="Menu-2" fill="none" stroke="none" />
    <path d="M49.7778 42.6667C51.7413 42.6667 53.3333 44.2587 53.3333 46.2222C53.3333 48.1858 51.7413 49.7778 49.7778 49.7778C48.7093 49.7778 15.2907 49.7778 14.2222 49.7778C12.2587 49.7778 10.6667 48.1858 10.6667 46.2222C10.6667 44.2587 12.2587 42.6667 14.2222 42.6667C15.2907 42.6667 48.7093 42.6667 49.7778 42.6667L49.7778 42.6667ZM49.7778 28.4444C51.7413 28.4444 53.3333 30.0364 53.3333 32C53.3333 33.9636 51.7413 35.5556 49.7778 35.5556C48.7093 35.5556 15.2907 35.5556 14.2222 35.5556C12.2587 35.5556 10.6667 33.9636 10.6667 32C10.6667 30.0364 12.2587 28.4444 14.2222 28.4444C15.2907 28.4444 48.7093 28.4444 49.7778 28.4444L49.7778 28.4444ZM49.7778 14.2222C51.7413 14.2222 53.3333 15.8142 53.3333 17.7778C53.3333 19.7413 51.7413 21.3333 49.7778 21.3333C48.7093 21.3333 15.2907 21.3333 14.2222 21.3333C12.2587 21.3333 10.6667 19.7413 10.6667 17.7778C10.6667 15.8142 12.2587 14.2222 14.2222 14.2222C15.2907 14.2222 48.7093 14.2222 49.7778 14.2222L49.7778 14.2222Z" id="Shape" fill="#000000" fill-rule="evenodd" stroke="none" />
  </g>
</svg>