<?xml version="1.0" encoding="utf-8"?>
<svg width="64px" height="64px" viewBox="0 0 64 64" version="1.1" xmlns:xlink="http://www.w3.org/1999/xlink" xmlns="http://www.w3.org/2000/svg">
  <defs>
    <path d="M64 0L64 0L64 64L0 64L0 0L64 0Z" id="path_1" />
    <clipPath id="clip_1">
      <use xlink:href="#path_1" clip-rule="evenodd" fill-rule="evenodd" />
    </clipPath>
  </defs>
  <g id="Search 2" clip-path="url(#clip_1)">
    <path d="M64 0L64 0L64 64L0 64L0 0L64 0Z" id="Search-2" fill="none" stroke="none" />
    <path d="M27.5556 9.77778C17.7538 9.77778 9.77778 17.7538 9.77778 27.5556C9.77778 37.3573 17.7538 45.3333 27.5556 45.3333C31.0882 45.3333 34.3755 44.2858 37.1458 42.5017L48.6458 54.0017C50.1249 55.4809 52.5235 55.4809 54.0017 54.0017C55.4809 52.5226 55.4809 50.1249 54.0017 48.6458L42.5017 37.1458C44.2858 34.3755 45.3333 31.0882 45.3333 27.5556C45.3333 17.7538 37.3573 9.77778 27.5556 9.77778L27.5556 9.77778ZM27.5556 16.8889C33.4364 16.8889 38.2222 21.6747 38.2222 27.5556C38.2222 33.4364 33.4364 38.2222 27.5556 38.2222C21.6747 38.2222 16.8889 33.4364 16.8889 27.5556C16.8889 21.6747 21.6747 16.8889 27.5556 16.8889L27.5556 16.8889Z" id="Shape" fill="#DDE6ED" fill-rule="evenodd" stroke="none" />
  </g>
</svg>